<svg width="328" height="32" viewBox="0 0 328 32" fill="none" xmlns="http://www.w3.org/2000/svg">
<g clip-path="url(#clip0_313_230)">
<rect width="328" height="32" rx="12" fill="#FCFAF7"/>
<path fill-rule="evenodd" clip-rule="evenodd" d="M232.752 218.248C234.677 220.171 235.758 222.78 235.758 225.5C235.758 228.22 234.677 230.829 232.752 232.752L171.252 294.252C169.329 296.177 166.72 297.258 164 297.258C161.28 297.258 158.671 296.177 156.748 294.252L95.2481 232.752C91.243 228.747 91.243 222.253 95.2481 218.248C99.2532 214.243 105.747 214.243 109.752 218.248L164 272.509L218.248 218.248C220.171 216.323 222.78 215.242 225.5 215.242C228.22 215.242 230.829 216.323 232.752 218.248ZM109.752 109.752L164 55.4909L218.248 109.752C222.253 113.757 228.747 113.757 232.752 109.752C236.757 105.747 236.757 99.2532 232.752 95.2481L171.252 33.7481C169.329 31.8234 166.72 30.7419 164 30.7419C161.28 30.7419 158.671 31.8234 156.748 33.7481L95.2481 95.2481C91.243 99.2532 91.243 105.747 95.2481 109.752C99.2532 113.757 105.747 113.757 109.752 109.752Z" fill="#96694F"/>
</g>
<rect x="0.5" y="0.5" width="327" height="31" rx="11.5" stroke="#E8D9D1"/>
<defs>
<clipPath id="clip0_313_230">
<rect width="328" height="32" rx="12" fill="white"/>
</clipPath>
</defs>
</svg>
