<svg width="17" height="17" viewBox="0 0 17 17" fill="none" xmlns="http://www.w3.org/2000/svg">
<path fill-rule="evenodd" clip-rule="evenodd" d="M9.48077 12.75C9.48077 13.2917 9.04166 13.7308 8.5 13.7308C7.95834 13.7308 7.51923 13.2917 7.51923 12.75C7.51923 12.2083 7.95834 11.7692 8.5 11.7692C9.04166 11.7692 9.48077 12.2083 9.48077 12.75ZM8.5 3.92308C6.69702 3.92308 5.23077 5.24303 5.23077 6.86538V7.19231C5.23077 7.55342 5.52351 7.84615 5.88462 7.84615C6.24572 7.84615 6.53846 7.55342 6.53846 7.19231V6.86538C6.53846 5.96635 7.4187 5.23077 8.5 5.23077C9.5813 5.23077 10.4615 5.96635 10.4615 6.86538C10.4615 7.76442 9.5813 8.5 8.5 8.5C8.13889 8.5 7.84615 8.79274 7.84615 9.15385V9.80769C7.84615 10.1688 8.13889 10.4615 8.5 10.4615C8.86111 10.4615 9.15385 10.1688 9.15385 9.80769V9.74885C10.6446 9.47505 11.7692 8.28587 11.7692 6.86538C11.7692 5.24303 10.303 3.92308 8.5 3.92308ZM17 8.5C17 13.1944 13.1944 17 8.5 17C3.80558 17 0 13.1944 0 8.5C0 3.80558 3.80558 0 8.5 0C13.1924 0.00495528 16.995 3.80763 17 8.5ZM15.6923 8.5C15.6923 4.5278 12.4722 1.30769 8.5 1.30769C4.5278 1.30769 1.30769 4.5278 1.30769 8.5C1.30769 12.4722 4.5278 15.6923 8.5 15.6923C12.4703 15.6878 15.6878 12.4703 15.6923 8.5Z" fill="#1C120D"/>
</svg>
